<svg width="868" height="1000" viewBox="0 0 868 1000" fill="none" xmlns="http://www.w3.org/2000/svg">
<rect x="384" y="200" width="100" height="300" fill="#030000"/>
<rect x="384" y="484" width="100" height="483" fill="#030000"/>
<rect x="284" y="300" width="300" height="200" fill="#030000"/>
<rect x="184" y="400" width="500" height="100" fill="#030000"/>
<path d="M15.9873 258.66L434 17.3205L852.013 258.66V741.34L434 982.68L15.9873 741.34V258.66Z" stroke="#030000" stroke-width="30"/>
<path d="M404.709 972.051C408.176 972.051 460.246 974.229 460.246 968.564C460.246 968.216 361.996 961.696 438.548 980.834C457.094 985.47 417.383 976.294 431.703 971.018C441.191 967.522 468.424 972.45 446.685 980.059C438.729 982.843 424.733 982.695 417.754 977.863C399.006 964.884 437.926 971.25 443.972 971.922C445.201 972.059 453.503 972.374 447.847 972.051C435.879 971.367 424.998 965.392 412.717 965.077C411.781 965.053 402.657 963.157 408.067 960.944C418.018 956.873 434.403 960.942 444.747 962.235C449.093 962.779 460.35 960.531 463.733 963.915C464.059 964.24 443.679 965.077 441.131 965.077C432.462 965.077 424.141 967.402 415.558 967.402C408.455 967.402 429.765 967.402 436.869 967.402C465.016 967.402 429.297 969.726 419.175 969.726C418.739 969.726 445.814 966.301 450.689 972.568C452.048 974.316 437.012 974.376 435.448 974.376C430.478 974.376 443.198 975.696 443.198 978.509C443.198 980.005 430.085 978.092 428.474 979.542C425.24 982.452 430.783 985.392 432.607 986" stroke="#030000" stroke-width="7" stroke-linecap="round"/>
<path d="M270.5 637.667C263.136 637.667 257.167 643.636 257.167 651C257.167 658.364 263.136 664.333 270.5 664.333C277.864 664.333 283.833 658.364 283.833 651C283.833 643.636 277.864 637.667 270.5 637.667ZM268 450L268 651L273 651L273 450L268 450Z" fill="#030000"/>
<path d="M538 586.667C530.636 586.667 524.667 592.636 524.667 600C524.667 607.364 530.636 613.333 538 613.333C545.364 613.333 551.333 607.364 551.333 600C551.333 592.636 545.364 586.667 538 586.667ZM535.5 399L535.5 600L540.5 600L540.5 399L535.5 399Z" fill="#030000"/>
<path d="M598 609.667C590.636 609.667 584.667 615.636 584.667 623C584.667 630.364 590.636 636.333 598 636.333C605.364 636.333 611.333 630.364 611.333 623C611.333 615.636 605.364 609.667 598 609.667ZM595.5 422L595.5 623L600.5 623L600.5 422L595.5 422Z" fill="#030000"/>
<path d="M342 687.667C334.636 687.667 328.667 693.636 328.667 701C328.667 708.364 334.636 714.333 342 714.333C349.364 714.333 355.333 708.364 355.333 701C355.333 693.636 349.364 687.667 342 687.667ZM339.5 500L339.5 701L344.5 701L344.5 500L339.5 500Z" fill="#030000"/>
<circle cx="733" cy="267" r="6" fill="#030000"/>
<circle cx="623" cy="206" r="6" fill="#030000"/>
<circle cx="229" cy="235" r="6" fill="#030000"/>
<circle cx="59" cy="350" r="6" fill="#030000"/>
<circle cx="118" cy="478" r="6" fill="#030000"/>
<circle cx="71" cy="651" r="6" fill="#030000"/>
<circle cx="178" cy="607" r="6" fill="#030000"/>
<circle cx="184" cy="747" r="6" fill="#030000"/>
<circle cx="300" cy="821" r="6" fill="#030000"/>
<circle cx="538" cy="867" r="6" fill="#030000"/>
<circle cx="538" cy="732" r="6" fill="#030000"/>
<circle cx="611" cy="679" r="6" fill="#030000"/>
<circle cx="598" cy="782" r="6" fill="#030000"/>
<circle cx="690" cy="794" r="6" fill="#030000"/>
<circle cx="676" cy="595" r="6" fill="#030000"/>
<circle cx="646" cy="338" r="6" fill="#030000"/>
<circle cx="434" cy="123" r="6" fill="#030000"/>
<circle cx="790" cy="375" r="6" fill="#030000"/>
<circle cx="750" cy="500" r="6" fill="#030000"/>
<circle cx="822" cy="667" r="6" fill="#030000"/>
<circle cx="744" cy="657" r="6" fill="#030000"/>
</svg>
